<?xml version="1.0" encoding="UTF-8" standalone="no"?>
<!-- Created with Inkscape (http://www.inkscape.org/) -->

<svg
   version="1.1"
   id="svg1"
   width="1310.72"
   height="655.35999"
   viewBox="0 0 1310.72 655.35999"
   sodipodi:docname="opengraph.svg"
   xml:space="preserve"
   inkscape:version="1.4.2 (ebf0e940d0, 2025-05-08)"
   xmlns:inkscape="http://www.inkscape.org/namespaces/inkscape"
   xmlns:sodipodi="http://sodipodi.sourceforge.net/DTD/sodipodi-0.dtd"
   xmlns:xlink="http://www.w3.org/1999/xlink"
   xmlns="http://www.w3.org/2000/svg"
   xmlns:svg="http://www.w3.org/2000/svg"><defs
     id="defs1"><linearGradient
       id="linearGradient9"
       inkscape:collect="always"><stop
         style="stop-color:#5bcefa;stop-opacity:1;"
         offset="0"
         id="stop9" /><stop
         style="stop-color:#5bcefa;stop-opacity:1;"
         offset="0.59409446"
         id="stop11" /><stop
         style="stop-color:#5bcefa;stop-opacity:0.64591813;"
         offset="0.77274024"
         id="stop12" /></linearGradient><radialGradient
       inkscape:collect="always"
       xlink:href="#linearGradient9"
       id="radialGradient10"
       cx="100"
       cy="100"
       fx="100"
       fy="100"
       r="62.835545"
       gradientUnits="userSpaceOnUse"
       gradientTransform="translate(-20,-20)" /></defs><sodipodi:namedview
     id="namedview1"
     pagecolor="#ffffff"
     bordercolor="#000000"
     borderopacity="0.25"
     inkscape:showpageshadow="2"
     inkscape:pageopacity="0.0"
     inkscape:pagecheckerboard="0"
     inkscape:deskcolor="#d1d1d1"
     inkscape:zoom="0.46463014"
     inkscape:cx="519.76826"
     inkscape:cy="379.87204"
     inkscape:window-width="1578"
     inkscape:window-height="840"
     inkscape:window-x="0"
     inkscape:window-y="0"
     inkscape:window-maximized="1"
     inkscape:current-layer="g1" /><g
     inkscape:groupmode="layer"
     inkscape:label="Image"
     id="g1"><rect
       style="fill:#232329;stroke:#313244;stroke-width:1.31144;fill-opacity:1"
       id="rect1"
       width="1309.4086"
       height="654.04858"
       x="0.65570068"
       y="0.65570068" /><g
       inkscape:label="Layer 1"
       id="layer1"
       transform="matrix(3.9785506,0,0,3.9786884,337.07594,9.3849207)"><circle
         style="fill:#ffffff;fill-opacity:1;stroke:none;stroke-width:5;stroke-dasharray:none;stroke-opacity:1"
         id="path1-7"
         cx="80"
         cy="80"
         r="60.335545" /><circle
         style="opacity:1;fill:url(#radialGradient10);fill-opacity:1;stroke:#313244;stroke-width:5;stroke-dasharray:none;stroke-opacity:1"
         id="path1"
         cx="80"
         cy="80"
         r="60.335545" /><circle
         style="opacity:1;fill:none;fill-opacity:1;stroke:#4c4c4c;stroke-width:6.741;stroke-linecap:butt;stroke-linejoin:round;stroke-dasharray:0.6741, 23.2854, 0.6741, 0;stroke-dashoffset:0;stroke-opacity:1"
         id="path3"
         cx="-79.999969"
         cy="80.004433"
         inkscape:label="path3"
         transform="rotate(-90)"
         r="39.209988" /><path
         id="ellipse2"
         style="opacity:1;fill:#1e1e2e;fill-opacity:1;stroke:#1e1e2e;stroke-width:3;stroke-linecap:butt;stroke-linejoin:round;stroke-dasharray:none;stroke-opacity:1"
         d="M 80.1558,38.91905 A 121.21683,121.21682 0 0 0 72.58314,80.209553 121.21683,121.21682 0 0 0 79.99974,121.08095 121.21683,121.21682 0 0 0 87.416859,80.209553 121.21683,121.21682 0 0 0 80.1558,38.91905 Z" /></g><rect
       style="fill:#262626;fill-opacity:0.29506016;stroke:#313244;stroke-width:1.31144"
       id="rect1-0"
       width="1309.4086"
       height="654.04858"
       x="0.65570068"
       y="0.65570068" /><g
       inkscape:label="Layer 1"
       id="layer1-6"
       transform="matrix(2.0628053,0,0,2.0628053,299.22521,172.96959)"><path
         style="fill:none;stroke:#ffffff;stroke-width:20;stroke-linejoin:round;stroke-dasharray:none;stroke-opacity:1"
         id="path1-2"
         sodipodi:type="arc"
         sodipodi:cx="87.058273"
         sodipodi:cy="75.004128"
         sodipodi:rx="46.964825"
         sodipodi:ry="46.964825"
         sodipodi:start="0"
         sodipodi:end="4.712389"
         sodipodi:open="true"
         sodipodi:arc-type="arc"
         d="M 134.0231,75.004128 A 46.964825,46.964825 0 0 1 105.03093,118.39397 46.964825,46.964825 0 0 1 53.849127,108.21327 46.964825,46.964825 0 0 1 43.668433,57.031467 46.964825,46.964825 0 0 1 87.058273,28.039303" /><path
         id="path1-5"
         style="color:#000000;fill:#ffffff;fill-opacity:1;stroke:none;stroke-linejoin:round;-inkscape-stroke:none"
         d="m 179.73032,18.051773 c -6.93294,0.14831 -13.89772,1.563089 -20.54138,4.314981 -21.25972,8.806067 -35.16478,29.618515 -35.16478,52.629865 0,23.01136 13.90506,43.823801 35.16478,52.629861 18.99075,7.86623 40.60024,4.80011 56.59551,-7.5401 -4.83518,-4.54543 -8.95989,-9.88848 -12.16825,-15.88586 -10.39716,8.0704 -24.38554,10.07823 -36.77347,4.94699 -13.83931,-5.73244 -22.81928,-19.172881 -22.81928,-34.152441 0,-14.97957 8.97997,-28.41691 22.81928,-34.14934 12.37941,-5.127717 26.35732,-3.12655 36.75229,4.92994 2.82392,-5.28753 6.43692,-10.217727 10.8138,-14.594468 0.4445,-0.444482 0.91898,-0.846003 1.37458,-1.274874 -10.39939,-8.022702 -23.16877,-12.130205 -36.0531,-11.854575 z" /><path
         style="fill:none;stroke:#ffffff;stroke-width:20;stroke-linejoin:round;stroke-dasharray:none;stroke-opacity:1"
         id="path1-5-2"
         sodipodi:type="arc"
         sodipodi:cx="74.996437"
         sodipodi:cy="-258.22574"
         sodipodi:rx="46.964825"
         sodipodi:ry="46.964825"
         sodipodi:start="0"
         sodipodi:end="4.712389"
         sodipodi:open="true"
         sodipodi:arc-type="arc"
         d="m 121.96126,-258.22574 a 46.964825,46.964825 0 0 1 -28.992163,43.38984 46.964825,46.964825 0 0 1 -51.181806,-10.18069 46.964825,46.964825 0 0 1 -10.180694,-51.18181 46.964825,46.964825 0 0 1 43.38984,-28.99216"
         transform="rotate(90)" /></g></g></svg>
